<?xml version="1.0" standalone="no"?>
<!DOCTYPE svg PUBLIC "-//W3C//DTD SVG 20010904//EN"
 "http://www.w3.org/TR/2001/REC-SVG-20010904/DTD/svg10.dtd">
<svg version="1.0" xmlns="http://www.w3.org/2000/svg"
 width="629.000000pt" height="629.000000pt" viewBox="0 0 629.000000 629.000000"
 preserveAspectRatio="xMidYMid meet">
<metadata>
Created by potrace 1.11, written by Peter Selinger 2001-2013
</metadata>
<g transform="translate(0.000000,629.000000) scale(0.100000,-0.100000)"
fill="#000000" stroke="none">
<path d="M0 3145 l0 -3145 3145 0 3145 0 0 3145 0 3145 -3145 0 -3145 0 0
-3145z m6240 2169 c0 -8 -4 -12 -10 -9 -5 3 -10 10 -10 16 0 5 5 9 10 9 6 0
10 -7 10 -16z m-3743 -1100 c-3 -3 -12 -4 -19 -1 -8 3 -5 6 6 6 11 1 17 -2 13
-5z m271 -1 c-10 -2 -26 -2 -35 0 -10 3 -2 5 17 5 19 0 27 -2 18 -5z m2415 0
c-7 -2 -21 -2 -30 0 -10 3 -4 5 12 5 17 0 24 -2 18 -5z m125 0 c-21 -2 -55 -2
-75 0 -21 2 -4 4 37 4 41 0 58 -2 38 -4z m-4556 -595 c-1 -326 -3 -741 -5
-923 -1 -181 -3 85 -5 593 -1 507 1 922 6 922 4 0 6 -267 4 -592z m4816 295
c-2 -270 -6 -239 -10 90 -2 97 0 177 5 177 4 0 6 -120 5 -267z m-2418 117
l-2215 -5 -6 -110 -5 -110 -2 111 c-1 61 1 114 5 117 3 4 1003 6 2222 5 l2216
-3 -2215 -5z m2240 -18 c0 -15 -2 -15 -10 -2 -13 20 -13 33 0 25 6 -3 10 -14
10 -23z m-2955 -175 c11 -3 35 -6 53 -6 l32 -1 0 -119 c0 -79 -4 -122 -11
-127 -14 -9 -36 -10 -221 -12 l-148 -2 0 -60 0 -60 151 0 c88 0 148 -4 145 -9
-4 -5 -2 -11 4 -13 6 -2 -24 -60 -67 -131 l-77 -127 -78 0 -78 0 0 -79 c0 -53
4 -83 13 -88 6 -4 80 -11 162 -15 83 -4 171 -10 197 -14 l48 -6 65 -110 c36
-61 65 -114 65 -119 0 -5 -44 -9 -97 -10 -54 0 -107 -3 -118 -5 -11 -2 -114
-5 -230 -7 -199 -2 -212 -1 -250 20 -52 28 -99 78 -122 128 -16 36 -18 83 -21
513 l-3 473 283 -4 c156 -2 292 -6 303 -10z m855 -127 l0 -140 -100 0 -100 0
0 -430 0 -430 -145 0 -145 0 0 431 0 430 -97 -2 -98 -2 -3 142 -3 141 346 0
345 0 0 -140z m600 120 c5 -8 10 -12 10 -7 0 4 10 1 23 -8 13 -8 25 -14 28
-13 2 2 4 2 3 1 0 -2 18 -22 40 -46 89 -93 88 -206 -3 -342 -43 -63 -51 -90
-32 -105 3 -3 19 -30 35 -60 17 -30 45 -78 63 -107 l33 -52 0 -181 0 -180 -33
0 c-25 0 -37 6 -45 23 -15 28 -35 60 -43 67 -3 3 -16 23 -29 45 -13 22 -32 48
-43 57 -10 9 -16 21 -13 27 4 5 -2 15 -13 21 -11 5 -26 21 -33 35 -32 61 -194
315 -200 315 -5 0 -8 -137 -8 -305 l0 -305 -140 0 -140 0 0 571 0 570 265 -3
c223 -3 267 -5 275 -18z m475 11 c-3 -6 12 -11 32 -13 21 -2 37 -6 36 -10 -2
-5 -3 -250 -3 -546 l0 -537 -65 -13 c-35 -6 -94 -12 -130 -12 l-65 0 0 570 0
570 101 0 c60 0 98 -4 94 -9z m1022 -23 c-3 -8 -6 -5 -6 6 -1 11 2 17 5 13 3
-3 4 -12 1 -19z m-4460 -135 c-2 -21 -4 -4 -4 37 0 41 2 58 4 38 2 -21 2 -55
0 -75z m4640 -345 c-1 -46 -3 -11 -3 77 0 88 2 125 3 83 2 -42 2 -114 0 -160z
m-4640 165 c-3 -10 -5 -4 -5 12 0 17 2 24 5 18 2 -7 2 -21 0 -30z m4640 -375
c-2 -24 -4 -5 -4 42 0 47 2 66 4 43 2 -24 2 -62 0 -85z m0 -290 c-2 -35 -3 -9
-3 57 0 66 1 94 3 63 2 -32 2 -86 0 -120z m0 -390 c-1 -46 -3 -9 -3 82 0 91 2
128 3 83 2 -46 2 -120 0 -165z m-4790 -94 c-3 -3 -12 -4 -19 -1 -8 3 -5 6 6 6
11 1 17 -2 13 -5z m335 -1 c-62 -2 -161 -2 -220 0 -59 1 -8 3 113 3 121 0 169
-2 107 -3z m226 0 c-10 -2 -28 -2 -40 0 -13 2 -5 4 17 4 22 1 32 -1 23 -4z
m665 0 c-116 -2 -310 -2 -430 0 -120 1 -24 2 212 2 237 0 335 -1 218 -2z
m3382 -4 c-82 -4 -253 -8 -380 -8 -126 0 -384 0 -572 0 l-342 -1 -4 -52 -3
-53 -2 62 -2 62 728 -1 c492 -1 679 -4 577 -9z m-2877 -1426 c-15 -2 -42 -2
-60 0 -18 2 -6 4 27 4 33 0 48 -2 33 -4z m335 0 c-7 -2 -21 -2 -30 0 -10 3 -4
5 12 5 17 0 24 -2 18 -5z m214 0 c-20 -2 -52 -2 -70 0 -17 2 0 4 38 4 39 0 53
-2 32 -4z m236 0 c-7 -2 -21 -2 -30 0 -10 3 -4 5 12 5 17 0 24 -2 18 -5z m180
0 c-7 -2 -21 -2 -30 0 -10 3 -4 5 12 5 17 0 24 -2 18 -5z m557 -3 c-20 -13
-33 -13 -25 0 3 6 14 10 23 10 15 0 15 -2 2 -10z"/>
<path d="M2240 3274 c-41 -6 -111 -16 -155 -23 -44 -6 -105 -17 -135 -24 l-55
-12 -3 -120 c-4 -192 19 -257 116 -317 36 -23 43 -23 345 -25 236 -2 307 1
307 10 0 7 -16 36 -35 64 -19 29 -35 58 -35 66 0 8 -8 24 -18 35 -18 20 -29
22 -203 23 -269 2 -274 5 -267 174 l3 80 91 3 91 3 17 36 c9 19 16 36 14 37
-2 1 -37 -3 -78 -10z"/>
<path d="M3637 3563 c-10 -10 -8 -173 2 -173 15 0 101 118 101 139 0 11 -9 25
-19 31 -22 11 -74 14 -84 3z"/>
<path d="M3392 3093 c3 -271 9 -358 22 -330 6 12 11 15 15 8 7 -11 146 -20
154 -11 2 3 7 129 10 281 l6 276 -46 7 c-25 3 -73 6 -105 6 l-60 0 4 -237z"/>
<path d="M3700 3304 c0 -3 8 -18 19 -32 10 -15 53 -85 96 -157 43 -71 82 -131
86 -133 5 -2 9 -8 9 -13 0 -5 25 -48 55 -94 30 -47 55 -88 55 -91 0 -12 31
-36 38 -29 4 3 8 78 10 166 l3 159 -51 88 c-72 124 -66 119 -154 131 -85 12
-166 14 -166 5z"/>
<path d="M4210 3012 c1 -131 4 -242 8 -248 4 -5 50 -10 103 -10 l96 -1 2 232
2 231 -98 17 c-54 10 -101 17 -106 17 -4 0 -7 -107 -7 -238z"/>
</g>
</svg>
